<?xml version="1.0" encoding="UTF-8" standalone="no"?>
<svg
   xmlns:dc="http://purl.org/dc/elements/1.1/"
   xmlns:cc="http://creativecommons.org/ns#"
   xmlns:rdf="http://www.w3.org/1999/02/22-rdf-syntax-ns#"
   xmlns:svg="http://www.w3.org/2000/svg"
   xmlns="http://www.w3.org/2000/svg"
   xmlns:xlink="http://www.w3.org/1999/xlink"
   xmlns:sodipodi="http://sodipodi.sourceforge.net/DTD/sodipodi-0.dtd"
   xmlns:inkscape="http://www.inkscape.org/namespaces/inkscape"
   width="1536"
   height="1536"
   viewBox="0 0 15360 15360"
   version="1.1"
   id="svg188"
   sodipodi:docname="toucan-logo-scaped-4.svg"
   inkscape:version="0.92.5 (2060ec1f9f, 2020-04-08)">
  <metadata
     id="metadata192">
    <rdf:RDF>
      <cc:Work
         rdf:about="">
        <dc:format>image/svg+xml</dc:format>
        <dc:type
           rdf:resource="http://purl.org/dc/dcmitype/StillImage" />
        <dc:title />
      </cc:Work>
    </rdf:RDF>
  </metadata>
  <sodipodi:namedview
     pagecolor="#ffffff"
     bordercolor="#666666"
     borderopacity="1"
     objecttolerance="10"
     gridtolerance="10"
     guidetolerance="10"
     inkscape:pageopacity="0"
     inkscape:pageshadow="2"
     inkscape:window-width="1718"
     inkscape:window-height="1128"
     id="namedview190"
     showgrid="false"
     inkscape:zoom="4.9166668"
     inkscape:cx="762.42708"
     inkscape:cy="759.34155"
     inkscape:window-x="72"
     inkscape:window-y="27"
     inkscape:window-maximized="0"
     inkscape:current-layer="svg188"
     showguides="false" />
  <defs
     id="defs67">
    <linearGradient
       inkscape:collect="always"
       id="mid_beak">
      <stop
         style="stop-color:#f49913;stop-opacity:0.94117647"
         offset="0"
         id="stop867" />
      <stop
         id="stop889"
         offset="0.58539689"
         style="stop-color:#f29014;stop-opacity:1" />
      <stop
         style="stop-color:#d06d11;stop-opacity:1"
         offset="1"
         id="stop869" />
    </linearGradient>
    <linearGradient
       id="mid_back"
       gradientUnits="userSpaceOnUse"
       x1="39.648438%"
       y1="70.96354%"
       x2="87.760414%"
       y2="43.164062%">
      <stop
         offset="0%"
         style="stop-color:rgb(18,23,25);"
         id="stop2" />
      <stop
         offset="23%"
         style="stop-color:rgb(23,44,49);"
         id="stop4" />
      <stop
         offset="44%"
         style="stop-color:rgb(24,83,84);"
         id="stop6" />
      <stop
         offset="46%"
         style="stop-color:rgb(25,87,88);"
         id="stop8" />
      <stop
         offset="100%"
         style="stop-color:rgb(41,189,191);"
         id="stop10" />
    </linearGradient>
    <linearGradient
       id="lower_back"
       gradientUnits="userSpaceOnUse"
       x1="53.515625%"
       y1="85.02604%"
       x2="81.11979%"
       y2="37.239582%">
      <stop
         offset="0%"
         style="stop-color:rgb(214,85,51);"
         id="stop13" />
      <stop
         offset="88%"
         style="stop-color:rgb(245,185,85);"
         id="stop15" />
      <stop
         offset="95%"
         style="stop-color:rgb(246,189,89);"
         id="stop17" />
      <stop
         offset="99%"
         style="stop-color:rgb(246,196,95);"
         id="stop19" />
      <stop
         offset="100%"
         style="stop-color:rgb(242,195,95);"
         id="stop21" />
    </linearGradient>
    <linearGradient
       id="upper_beak"
       gradientUnits="userSpaceOnUse"
       x1="9.505208%"
       y1="50%"
       x2="53.515625%"
       y2="24.544271%">
      <stop
         offset="0%"
         style="stop-color:rgb(104,47,77);"
         id="stop24" />
      <stop
         offset="1%"
         style="stop-color:rgb(101,42,73);"
         id="stop26" />
      <stop
         offset="3%"
         style="stop-color:rgb(107,39,79);"
         id="stop28" />
      <stop
         offset="60%"
         style="stop-color:rgb(230,54,56);"
         id="stop30" />
      <stop
         offset="93%"
         style="stop-color:rgb(242,139,19);"
         id="stop32" />
      <stop
         offset="99%"
         style="stop-color:rgb(242,146,20);"
         id="stop34" />
      <stop
         offset="100%"
         style="stop-color:rgb(238,145,22);"
         id="stop36" />
    </linearGradient>
    <linearGradient
       id="lower_beak"
       gradientUnits="userSpaceOnUse"
       x1="21.158854%"
       y1="34.895832%"
       x2="46.158855%"
       y2="49.414062%">
      <stop
         offset="0%"
         style="stop-color:rgb(19,122,118);"
         id="stop39" />
      <stop
         offset="80%"
         style="stop-color:rgb(24,113,109);"
         id="stop41" />
      <stop
         offset="86%"
         style="stop-color:rgb(25,103,99);"
         id="stop43" />
      <stop
         offset="92%"
         style="stop-color:rgb(28,87,84);"
         id="stop45" />
      <stop
         offset="100%"
         style="stop-color:rgb(27,60,61);"
         id="stop47" />
    </linearGradient>
    <linearGradient
       id="throat"
       gradientUnits="userSpaceOnUse"
       x1="45.898438%"
       y1="47.591145%"
       x2="51.822918%"
       y2="44.20573%">
      <stop
         offset="0%"
         style="stop-color:rgb(135,68,6);"
         id="stop50" />
      <stop
         offset="2%"
         style="stop-color:rgb(120,57,1);"
         id="stop52" />
      <stop
         offset="3%"
         style="stop-color:rgb(128,63,4);"
         id="stop54" />
      <stop
         offset="18%"
         style="stop-color:rgb(136,67,9);"
         id="stop56" />
      <stop
         offset="89%"
         style="stop-color:rgb(120,57,8);"
         id="stop58" />
      <stop
         offset="96%"
         style="stop-color:rgb(104,52,10);"
         id="stop60" />
      <stop
         offset="99%"
         style="stop-color:rgb(84,39,6);"
         id="stop62" />
      <stop
         offset="100%"
         style="stop-color:rgb(93,47,13);"
         id="stop64" />
    </linearGradient>
    <linearGradient
       inkscape:collect="always"
       xlink:href="#throat"
       id="linearGradient4983"
       gradientUnits="userSpaceOnUse"
       x1="0.45898438"
       y1="0.47591144"
       x2="0.51822919"
       y2="0.44205731"
       gradientTransform="matrix(-1,0,0,1,14763.665,0)" />
    <linearGradient
       inkscape:collect="always"
       xlink:href="#lower_beak"
       id="linearGradient4993"
       gradientUnits="userSpaceOnUse"
       x1="21.158854%"
       y1="34.895832%"
       x2="46.158855%"
       y2="49.414062%"
       gradientTransform="matrix(-1,0,0,1,14763.665,0)" />
    <linearGradient
       inkscape:collect="always"
       xlink:href="#lower_back"
       id="linearGradient5092"
       gradientUnits="userSpaceOnUse"
       x1="53.515625%"
       y1="85.02604%"
       x2="81.11979%"
       y2="37.239582%"
       gradientTransform="matrix(-1,0,0,1,14763.665,0)" />
    <linearGradient
       inkscape:collect="always"
       xlink:href="#mid_back"
       id="linearGradient5095"
       gradientUnits="userSpaceOnUse"
       x1="39.648438%"
       y1="70.96354%"
       x2="87.760414%"
       y2="43.164062%"
       gradientTransform="matrix(-1,0,0,1,14763.665,0)" />
    <linearGradient
       inkscape:collect="always"
       xlink:href="#mid_back"
       id="linearGradient5101"
       gradientUnits="userSpaceOnUse"
       x1="39.648438%"
       y1="70.96354%"
       x2="87.760414%"
       y2="43.164062%" />
    <linearGradient
       inkscape:collect="always"
       xlink:href="#upper_beak"
       id="linearGradient5329"
       gradientUnits="userSpaceOnUse"
       x1="9.505208%"
       y1="50%"
       x2="53.515625%"
       y2="24.544271%"
       gradientTransform="matrix(-1,0,0,1,14763.665,0)" />
    <linearGradient
       inkscape:collect="always"
       xlink:href="#mid_beak"
       id="linearGradient877"
       gradientUnits="userSpaceOnUse"
       x1="6036.1016"
       y1="4314.7622"
       x2="7709.9995"
       y2="5413"
       gradientTransform="matrix(-1,0,0,1,14763.665,0)" />
    <linearGradient
       inkscape:collect="always"
       xlink:href="#lower_back"
       id="linearGradient4886"
       x1="7687.1406"
       y1="7463.3242"
       x2="9009.0166"
       y2="9781.9688"
       gradientUnits="userSpaceOnUse" />
  </defs>
  <path
     style="fill:#ece6d5;stroke-width:1"
     d="m 6049.2708,2445.1562 c 1192.2779,180.0002 4174.7492,989.7496 5234.7792,1727.5328 1866.607,1260.7195 1861.702,3473.7555 1510.565,4403.2782 129.815,-1022.8811 -722.37,-3571.486 -1558.547,-4261.3011 C 10026.56,3763.9013 8207.8807,3078.7493 6049.2708,2445.1562 Z"
     id="pCy5Xv3MS"
     inkscape:connector-curvature="0"
     sodipodi:nodetypes="ccccc" />
  <path
     style="fill:#ece6d5"
     d="M 8222.1598,10726.2 C 8470.2148,9081.1409 7861.7116,7756.2551 6713.6653,6752 c 2.152,-1133.3865 -32.9827,-2414.4144 -21,-3560 -1060.6089,-481.2504 -2475.982,-80.1209 -3000.615,995.0351 -592,1093.1824 -142.378,2644.7526 1028.453,3140.7614 834.7259,354.135 1845.5906,531.5453 2403.4985,1321.3678 533.5191,576.4257 774.8947,1343.7156 1070.0466,2049.4677 l 19.5237,19.146 z"
     id="pxT5FtpvY"
     inkscape:connector-curvature="0"
     sodipodi:nodetypes="ccccccccc" />
  <path
     style="fill:#ece6d5;stroke-width:1"
     d="m 7827.5401,7330.3853 c 104.159,40.5356 191.6533,113.6485 254.5194,205.5892 183.6355,245.6895 366.0378,496.0582 493.9901,776.2971 150.2105,287.5866 235.8048,604.0392 292.5998,922.0521 25.3048,130.3717 14.3684,266.0473 -18.988,393.6841 -141.4369,-349.9421 -343.0165,-1229.2597 -646.8051,-1750.0232 -97.6256,-156.071 -194.7639,-313.2529 -303.6069,-461.6296 -25.5468,-27.1289 -55.1907,-51.7541 -71.7093,-85.9697 z"
     id="parfRfuVz"
     inkscape:connector-curvature="0"
     sodipodi:nodetypes="cccccccc" />
  <path
     style="fill:#ece6d5"
     id="puu1xFy8P"
     d="m 11913.665,6008 c 0,-23 -13,-49 -47,-92 -244,-312 -537,-608 -778,-787 -174,-129 -311,-210 -542,-323 -328,-161 -526,-226 -1507.9997,-498 -604,-167 -1731,-430 -1909,-445 l -79,-6 7,73 c 3,41 8,75 9,77 6,5 171,45 247,58 140,26 1084,247 1255,295 38,10 196,51 350,90 154,39 336,87 405,106 407,114 496,139 595,170 266.9997,85 548.9997,208 789.9997,347 164,94 437,307 670,521 l 60,55 -145,-49 c -286,-96 -600,-162 -902,-190 -121,-11 -2307.9997,-13 -2990.9997,-3 l -347,6 v 58 59 l 32,1 c 18,1 744,5 1613,9 1047,5 1614.9997,12 1684.9997,19 139,15 370,54 517,87 288,64 674,217 867,342 55,36 90,52 113,52 30,0 33,-2 33,-32 z"
     inkscape:connector-curvature="0" />
  <path
     style="fill:url(#linearGradient5092);stroke-width:1"
     d="m 2126.6787,5360.5753 c -66.7632,890.1341 45.9509,2216.1056 476.4027,2864.3298 602.262,769.1608 1264.9106,1144.0004 2021.555,1477.3717 455.0144,184.9547 879.3265,457.1722 1212.2125,820.7312 463.9186,313.348 657.0923,878.956 821.2457,1388.618 92.2402,329.919 188.4364,697.745 184.852,1020.776 -380.1552,-106.712 -798.8365,-208.185 -1189.4234,-317.311 C 4237.4935,12202.255 3033.2499,11171.228 2347.4574,9873.1932 1905.3852,8998.5544 1826.8859,7997.8487 1814.3215,7033.7904 c 27.684,-565.6996 169.5104,-1428.8497 312.3572,-1673.2151 z"
     id="pO7FvSUiU"
     inkscape:connector-curvature="0"
     sodipodi:nodetypes="cccccccccc" />
  <path
     style="fill:url(#linearGradient877);fill-opacity:1;fill-rule:nonzero"
     d="M 10051.341,4733.8926 C 8934.2589,4402.3905 8064.9346,4205.2112 7075.3369,3981.5572 c -9.2965,540.2822 -28.8133,655.3485 -21.6716,1431.4428 1082.3587,7.3626 2256.4816,8.303 3205.2027,23.2631 502.697,31.23 1146.343,226.3161 1363.602,347.9505 -621.551,-670.7708 -1044.445,-876.3483 -1571.129,-1050.321 z"
     id="p1CR1IhFKK"
     inkscape:connector-curvature="0"
     sodipodi:nodetypes="cccccc" />
  <path
     style="fill:url(#linearGradient5329);stroke-width:1"
     d="m 7060.6575,2700 c 1203.8371,338.176 2418.4829,666.4874 3564.0215,1174.7656 1002.21,474.4767 1840.14,1344.1348 2148.318,2423.2687 241.871,840.8029 178.125,1746.8999 -53.908,2581.924 -66.072,-793.938 -207.081,-1481.3414 -433.234,-2221.2577 C 11844.409,5819.6908 11171.506,5052.6012 10260.508,4721.2534 9172.4605,4330.2739 7842.5832,4092.941 7077.106,3893.6102 7076.3928,3592.6824 7053.089,3002.882 7060.6575,2700 Z"
     id="p12Lvg8Ecc"
     inkscape:connector-curvature="0"
     sodipodi:nodetypes="cccccccc" />
  <path
     style="fill:url(#linearGradient4886);fill-opacity:1"
     d="M 8851.6653,9635 C 8842.7147,8794.8772 8436.0777,8006.3572 7883.264,7392.3181 7657.202,7107.8619 7190.7731,7088.8198 6938.6653,7050 c 1159.8333,1433.3841 1460.5152,2579.3789 1226.1346,3722.92 357.5797,-281.859 605.2879,-699.181 689.6403,-1145.7423 z"
     id="p143yTvBau"
     inkscape:connector-curvature="0"
     sodipodi:nodetypes="cccccc" />
  <path
     style="fill:url(#linearGradient4983);fill-opacity:1"
     d="m 7361.4619,6818.7627 c -112.8878,-14.2234 -515.4963,-17.2588 -659.7966,-26.7627 100.0526,102.2603 237,258 237,258 332.0328,58.3385 541.3662,128.1346 888.8748,280.3853 -151.5543,-179.2963 -321.2319,-343.3011 -466.0782,-511.6226 z"
     id="pzaUTt8Z"
     inkscape:connector-curvature="0"
     sodipodi:nodetypes="ccccc" />
  <path
     style="fill:url(#linearGradient5095);stroke-width:1"
     d="m 2461.0283,4396.5234 c -483.6817,1623.488 519.4664,2692.6946 1644.9328,3247.2245 1418.1022,578.9522 2035.8041,201.0583 2903.3115,1532.1013 863.9606,1155.5628 1062.358,2592.1508 1135.3699,2952.7498 -307.4506,272.087 -889.8673,730.128 -1301.6959,803.803 -78.3097,-1406.53 -992.4442,-2780.312 -2351.8193,-3237.9135 -628.957,-226.4962 -1248.421,-547.1634 -1658.964,-1092.6182 -692.656,-883.6341 -928.321,-2086.9837 -721.406,-3179.8966 75.119,-353.8501 178.724,-705.3599 350.271,-1025.4503 z"
     id="p1DwEAeDsp"
     inkscape:connector-curvature="0"
     sodipodi:nodetypes="ccccccccc" />
  <path
     style="fill:url(#linearGradient4993);stroke-width:1"
     d="m 7056.4692,5496.4817 c 921.5164,33.5312 2025.5082,11.2934 2856.2781,22.9714 686.5737,-14.9578 1396.9107,115.7974 1976.9137,500.5469 304.315,308.5481 645.123,1134.5221 641.541,1278.0061 -287.821,-453.6249 -785.84,-877.5186 -1317.4,-1006.053 -613.275,-109.8044 -849.888,94.1722 -1095.273,552.1485 -1028.7587,-15.6936 -2289.0731,-9.8441 -3048.8676,-13.1055 -28.8323,-225.1422 -15.8681,-1227.0197 -13.1922,-1334.5144 z"
     id="p2ZOc20wu"
     inkscape:connector-curvature="0"
     sodipodi:nodetypes="cccccccc" />
  <path
     style="fill:#152327"
     d="m 8887.5644,9375.938 c -47.1442,290.0547 -162.8223,935.703 -708.0397,1347.734 C 7913.5094,9735.0805 7448.4024,8752.4097 6620.7273,8112.5824 6195.7156,7744.2856 5638.6101,7632.4788 5119.9002,7464.8125 4188.4023,7145.1069 3410.2173,6255.1575 3448.2423,5236.6336 c 23.508,-1142.8784 1051.222,-2153.1408 2197.923,-2143.2925 351.3219,-16.0819 703.1301,26.612 1046.5,98.6589 2.7751,1199.9939 -4.3549,2400.0906 9,3600 283.3487,29.9102 135.8179,16.5066 368,39 -0.3988,-1261.037 14.4661,-2864.9626 14,-4126 C 6357.211,2503.2657 5593.911,2315.7141 4841.6157,2495.0825 3671.4703,2710.6216 2662.1293,3615.6469 2320.2703,4751.4199 c -214.068,1315.4701 738.639,2606.5822 1950.051,3043.3301 670.1245,275.4627 1461.7646,223.6218 2051.48,691.7113 565.7506,347.0668 833.1289,981.9286 1139.9714,1540.3877 333.6106,681.094 515.8053,1412.739 682.8698,2101.75 459.6404,-363.253 912.3386,-1427.222 742.9219,-2752.661 z"
     id="p190yRUXMy"
     inkscape:connector-curvature="0"
     sodipodi:nodetypes="ccccccccccccccccc" />
  <path
     style="fill:#152327"
     d="m 12732.79,8263.75 c -14.512,-323.5633 -89.406,-641.7984 -194,-947.25 -300.835,-565.868 -875.032,-999.0736 -1475.781,-1077.3594 -775.987,-89.3871 -937.841,191.4158 -945.826,602.6231 784.833,36.2044 1528.582,416.37 1958.129,893.9656 405.348,414.9199 540.346,812.3486 585.15,1326.5676 116.043,-253.5903 72.686,-560.5256 72.328,-798.5469 z"
     id="p1EP03mYuP"
     inkscape:connector-curvature="0"
     sodipodi:nodetypes="ccccccc" />
  <path
     style="fill:#152327"
     d="m 6086.6653,4966 c 314.1169,-66.8704 535.2392,-419.7907 444.7445,-731.0053 -67.6179,-280.6797 -362.9497,-485.4594 -650.1039,-440.8572 -280.7108,32.1784 -521.7814,285.6513 -522.0665,571.5219 -11.4658,296.0469 225.3139,589.146 527.1678,608.9896 66.7377,6.5261 134.238,2.5528 200.2581,-8.649 z m -373,-576 c -152.164,-68.0731 -133.912,-326.4067 26.2056,-373.6989 146.2617,-55.9546 311.5114,100.2658 265.2366,249.2969 -33.7984,116.0978 -183.6326,193.9544 -291.4422,124.402 z"
     id="pqY1Q69vK"
     inkscape:connector-curvature="0" />
</svg>
